<svg width="32" height="32" version="1.1" viewBox="0 0 8 8" xmlns="http://www.w3.org/2000/svg"><g><path d="m2.5 1h3a1 0.9333 0 0 1 1 0.9333v5.133a1 0.9333 0 0 1-1 0.9333h-3a1 0.9333 0 0 1-1-0.9333v-5.133a1 0.9333 0 0 1 1-0.9333z" fill="#fff"/><rect x="2.25" y="1.75" width="3.5" height="5.5"/><path d="m2.5 2v-0.75h0.75v-0.5h1.5v0.5h0.75v0.75z" fill="#7a7a7a"/><path d="m4 0a0.5 0.5 0 0 0-0.5 0.5 0.5 0.5 0 0 0 0.5 0.5 0.5 0.5 0 0 0 0.5-0.5 0.5 0.5 0 0 0-0.5-0.5zm0 0.25a0.25 0.25 0 0 1 0.25 0.25 0.25 0.25 0 0 1-0.25 0.25 0.25 0.25 0 0 1-0.25-0.25 0.25 0.25 0 0 1 0.25-0.25z" fill="#7a7a7a"/><text x="2.7383347" y="5.6900001" fill="#ffffff" font-family="Serif" font-size="3.333px" font-weight="bold" stroke-width=".09449" xml:space="preserve"><tspan x="2.7383347" y="5.6900001" fill="#ffffff" font-size="3.333px" stroke-width=".09449">A</tspan></text></g></svg>
