<svg width="32" height="32" version="1.1" viewBox="0 0 32 32" xmlns="http://www.w3.org/2000/svg"><g fill="#fff"><rect x="5.5" y="5.5" width="21" height="21" stroke-width="3.764"/><g transform="scale(1 .7273)" stroke-width="4.69"><rect x="5.5" y="-6.661e-16" width="3" height="5.5"/><rect x="11.5" y="-6.661e-16" width="3" height="5.5"/><rect x="17.5" y="-6.661e-16" width="3" height="5.5"/><rect x="23.5" y="-6.661e-16" width="3" height="5.5"/></g><g transform="matrix(1 0 0 .7273 0 28)" stroke-width="4.69"><rect x="5.5" y="-6.661e-16" width="3" height="5.5"/><rect x="11.5" y="-6.661e-16" width="3" height="5.5"/><rect x="17.5" y="-6.661e-16" width="3" height="5.5"/><rect x="23.5" y="-6.661e-16" width="3" height="5.5"/></g><g transform="matrix(0 1 -.7273 0 32 0)" stroke-width="4.69"><rect x="5.5" y="-6.661e-16" width="3" height="5.5"/><rect x="11.5" y="-6.661e-16" width="3" height="5.5"/><rect x="17.5" y="-6.661e-16" width="3" height="5.5"/><rect x="23.5" y="-6.661e-16" width="3" height="5.5"/></g><g transform="matrix(0 1 -.7273 0 4 0)" stroke-width="4.69"><rect x="5.5" y="-6.661e-16" width="3" height="5.5"/><rect x="11.5" y="-6.661e-16" width="3" height="5.5"/><rect x="17.5" y="-6.661e-16" width="3" height="5.5"/><rect x="23.5" y="-6.661e-16" width="3" height="5.5"/></g></g></svg>
