<svg width="32" height="32" version="1.1" viewBox="0 0 32 32" xmlns="http://www.w3.org/2000/svg"><g transform="matrix(.2412 0 0 .2412 .5618 3.363)"><g><path d="m113.5 77.89h-98.92c-1.9 0-3.44-1.54-3.44-3.44v-67c0-1.9 1.54-3.44 3.44-3.44h98.91c1.9 0 3.44 1.54 3.44 3.44v67c0.01 1.89-1.53 3.44-3.43 3.44z" fill="#fff"/><rect x="15.25" y="9.38" width="97.5" height="63.12"/></g><rect x="55.7" y="77.88" width="16.58" height="16.58" fill="#fff"/><rect x="32.91" y="94.46" width="62.18" height="8.291" ry="3.339" fill="#fff"/></g><g transform="matrix(1.804 0 0 1.804 -.9626 -.9199)" display="none"><rect x="2.719" y="11.18" width="1.522" height="7.065" ry="0" fill="#4d4d4d"/><rect x="1.197" y="6.613" width="4.566" height="4.566" fill="#4d4d4d"/><rect x="1.958" y="4.33" width="3.044" height="2.283" fill="#b4b4b4"/></g><path d="m21.02 9.558c-1.524-2.133-4.01-2.345-5.01-2.36-0.9668-0.01425-3.023 0.3073-4.525 1.851-1.114 1.145-1.656 2.571-1.635 4.218 0.01832 1.493 0.5302 2.723 1.465 3.845 1.381 1.656 3.343 2.085 4.715 2.085 0.03868 0 0.07734 0 0.116-1e-3 1.337-0.03562 3.65-0.4193 5.031-2.68 0.6106-0.9994 0.9556-2.164 0.9699-3.278 0.0234-1.797-0.6961-3.079-1.128-3.681zm0.3969 3.182-1.17-0.0031c-0.03664-0.8386-0.1801-1.556-0.3847-2.168l0.8925 0.0031c0.2911 0.5231 0.5903 1.255 0.6625 2.168zm-10.82 0.7877 1.22 0.0031c0.04885 0.6849 0.1608 1.446 0.402 2.193h-0.9922c-0.3725-0.6625-0.5821-1.392-0.6299-2.196zm5.805-5.685c0.3603 0.1354 1.406 0.6147 2.174 1.909l-2.179-0.0061zm-0.7175 0.02951v1.872l-2.24-0.0061c0.8386-1.321 2.028-1.791 2.24-1.865zm0 2.686v2.169l-3.076-0.0071c0.02036-0.8589 0.1811-1.574 0.4203-2.169zm-3.897 2.159-1.182-0.0031c0.07022-0.7857 0.3185-1.515 0.7114-2.169l0.8274 2e-3c-0.2127 0.6116-0.3511 1.33-0.3572 2.17zm0.8376 0.8162 3.059 0.0072v2.184h-2.627c-0.2198-0.5974-0.3776-1.32-0.4325-2.191zm3.059 3.005v1.952c-0.4132-0.1323-1.491-0.5943-2.254-1.952zm0.6981 1.966 0.01426-1.966h2.258c-0.6971 1.351-1.74 1.839-2.272 1.966zm0.01426-2.78v-2.182l3.015 0.0071c-0.03562 0.865-0.1811 1.581-0.3908 2.175zm0-2.996v-2.168l2.581 0.0072c0.232 0.5933 0.3949 1.308 0.4335 2.168zm3.814-2.971-0.6808-0.0021c-0.2473-0.4977-0.5312-0.9007-0.8121-1.224 0.5272 0.2799 1.047 0.6737 1.493 1.226zm-6.899-1.178c-0.2799 0.3073-0.5648 0.689-0.8131 1.155l-0.5882-0.0021c0.07022-0.08036 0.1425-0.1597 0.2168-0.2371 0.3765-0.3847 0.7796-0.6849 1.185-0.9159zm-1.432 8.058c-0.02849-0.03257-0.05597-0.06614-0.08447-0.09872h0.746c0.2178 0.4549 0.4966 0.8895 0.8528 1.282-0.5465-0.2931-1.074-0.6849-1.514-1.184zm6.825 1.24c0.3053-0.3715 0.6839-0.8233 0.8935-1.338h0.6635c-0.4111 0.518-1.051 1.052-1.557 1.338zm2.083-2.152h-0.8823c0.228-0.748 0.3216-1.504 0.347-2.173l1.171 0.0031c-0.0692 0.9291-0.3694 1.668-0.6361 2.17z" fill="#fff" stroke-width=".1018"/></svg>
