<svg width="32" height="32" version="1.1" viewBox="0 0 32 32" xmlns="http://www.w3.org/2000/svg"><g transform="matrix(.2412 0 0 .2412 .5618 3.363)"><g><path d="m113.5 77.89h-98.92c-1.9 0-3.44-1.54-3.44-3.44v-67c0-1.9 1.54-3.44 3.44-3.44h98.91c1.9 0 3.44 1.54 3.44 3.44v67c0.01 1.89-1.53 3.44-3.43 3.44z" fill="#fff"/><rect x="15.25" y="9.38" width="97.5" height="63.12"/></g><rect x="55.7" y="77.88" width="16.58" height="16.58" fill="#fff"/><rect x="32.91" y="94.46" width="62.18" height="8.291" ry="3.339" fill="#fff"/></g><g transform="matrix(1.804 0 0 1.804 -.9626 -.9199)" display="none"><rect x="2.719" y="11.18" width="1.522" height="7.065" ry="0" fill="#4d4d4d"/><rect x="1.197" y="6.613" width="4.566" height="4.566" fill="#4d4d4d"/><rect x="1.958" y="4.33" width="3.044" height="2.283" fill="#b4b4b4"/></g><path transform="matrix(.991 0 0 .991 .143 1.35)" d="m21.54 17.28h-11.1a0.8351 0.8351 60 0 1-0.7232-1.253l5.558-9.627a0.8363 0.8363 1.594e-6 0 1 1.448 1e-7l5.549 9.612a0.8454 0.8454 120 0 1-0.7321 1.268z" fill="#ffe240" stroke-width=".378"/><text x="14.501328" y="17.1875" fill="#000000" font-family="sans" font-size="10.67px" font-weight="bold" stroke-width=".378" xml:space="preserve"><tspan x="14.501328" y="17.1875">!</tspan></text></svg>
