<svg width="32" height="32" version="1.1" viewBox="0 0 8.467 8.467" xmlns="http://www.w3.org/2000/svg"><path d="m6.229 7.363v-4.078a1.251 1.251 0 0 0-0.3663-0.8844 1.188 1.188 0 0 0-0.8418-0.3443h-0.788v-0.9533h0.6741a2.234 2.234 0 0 1 1.58 0.6543h1e-7a1.924 1.924 0 0 1 0.5635 1.36l1e-7 1.413h0.1297a1.29 1.29 0 0 1 0.912 0.3778 1.286 1.286 0 0 1 0.3744 0.9106v0.2699a1.26 1.26 0 0 1-0.369 0.8909 1.31 1.31 0 0 1-0.9263 0.3832zm-3.992 0v-4.078a1.251 1.251 0 0 1 0.3663-0.8844 1.188 1.188 0 0 1 0.8418-0.3443h0.788v-0.9533h-0.6741a2.234 2.234 0 0 0-1.58 0.6543h-1e-7a1.924 1.924 0 0 0-0.5635 1.36l-1e-7 1.413h-0.1297a1.29 1.29 0 0 0-0.912 0.3778 1.286 1.286 0 0 0-0.3744 0.9106v0.2699a1.26 1.26 0 0 0 0.369 0.8909 1.31 1.31 0 0 0 0.9263 0.3832z" display="none" fill="#fff"/><g><path d="m4.232 0c-2.335 0-4.232 1.897-4.232 4.232 0 1.168 0.4748 2.226 1.241 2.993l0.3757-0.3757c-0.6688-0.6691-1.082-1.594-1.082-2.617 0-2.046 1.651-3.697 3.697-3.697s3.7 1.651 3.7 3.697c0 1.023-0.4135 1.948-1.083 2.617l0.3762 0.3762c0.7667-0.7667 1.241-1.826 1.241-2.993 0-2.335-1.9-4.232-4.234-4.232z" fill="#fff" stop-color="#000000"/><circle cx="4.233" cy="4.233" r="3.966" display="none" fill="none" stroke="#fff" stroke-width=".5347"/><path d="m4.232 0c-1.166 0-2.223 0.4755-2.99 1.242l1.007 1.008c0.5735-0.5737 1.104-0.9271 1.983-0.9271 0.8799 0 1.409 0.3537 1.983 0.9276l1.008-1.008c-0.7671-0.7671-1.826-1.243-2.992-1.243z" fill="#fff" stop-color="#000000"/><rect transform="rotate(-45)" x="-4.842" y="4.685" width="2.381" height="2.91" ry=".7938" fill="#fff"/><rect transform="matrix(-.7071 -.7071 -.7071 .7071 0 0)" x="-10.83" y="-1.302" width="2.381" height="2.91" ry=".7938" fill="#fff"/></g></svg>
