<svg enable-background="new 0 0 128 128" version="1.1" viewBox="0 0 128 128" xmlns="http://www.w3.org/2000/svg"><defs><clipPath id="b"><path transform="translate(-314.7 -101.7)" d="m0 324h524v-324h-524z"/></clipPath><filter id="a" x="-.1785" y="-.2697" width="1.359" height="1.448" color-interpolation-filters="sRGB"><feFlood flood-color="rgb(0,0,0)" flood-opacity=".6251" in="SourceGraphic" result="flood"/><feGaussianBlur in="SourceGraphic" result="blur" stdDeviation="2"/><feOffset dx="0.049154" dy="-2.994067" in="blur" result="offset"/><feComposite in="flood" in2="offset" operator="in" result="comp1"/><feComposite in="SourceGraphic" in2="comp1" result="comp2"/></filter></defs><path d="m113.3 28.59c-14.98-20.96-39.4-23.04-49.23-23.19-9.5-0.14-29.7 3.02-44.46 18.19-10.95 11.25-16.27 25.26-16.07 41.45 0.18 14.67 5.21 26.76 14.4 37.78 13.57 16.27 32.85 20.49 46.33 20.49 0.38 0 0.76 0 1.14-0.01 13.14-0.35 35.87-4.12 49.44-26.33 6-9.82 9.39-21.26 9.53-32.21 0.23-17.66-6.84-30.25-11.08-36.17zm3.9 31.27-11.5-0.03c-0.36-8.24-1.77-15.29-3.78-21.3l8.77 0.03c2.86 5.14 5.8 12.33 6.51 21.3zm-106.4 7.74 11.99 0.03c0.48 6.73 1.58 14.21 3.95 21.55h-9.75c-3.66-6.51-5.72-13.68-6.19-21.58zm57.04-55.86c3.54 1.33 13.82 6.04 21.36 18.76l-21.41-0.06 0.05-18.7zm-7.05 0.29v18.39l-22.01-0.06c8.24-12.98 19.93-17.6 22.01-18.33zm0 26.39v21.31l-30.23-0.07c0.2-8.44 1.78-15.47 4.13-21.31l26.1 0.07zm-38.29 21.21-11.61-0.03c0.69-7.72 3.13-14.89 6.99-21.31l8.13 0.02c-2.09 6.01-3.45 13.07-3.51 21.32zm8.23 8.02 30.06 0.07v21.46h-25.81c-2.16-5.87-3.71-12.97-4.25-21.53zm30.06 29.53v19.18c-4.06-1.3-14.65-5.84-22.15-19.18h22.15zm6.86 19.32 0.14-19.32h22.19c-6.85 13.28-17.1 18.07-22.33 19.32zm0.14-27.32v-21.44l29.63 0.07c-0.35 8.5-1.78 15.54-3.84 21.37h-25.79zm0-29.44v-21.3l25.36 0.07c2.28 5.83 3.88 12.85 4.26 21.3l-29.62-0.07zm37.48-29.19-6.69-0.02c-2.43-4.89-5.22-8.85-7.98-12.03 5.18 2.75 10.29 6.62 14.67 12.05zm-67.79-11.58c-2.75 3.02-5.55 6.77-7.99 11.35l-5.78-0.02c0.69-0.79 1.4-1.57 2.13-2.33 3.7-3.78 7.66-6.73 11.64-9zm-14.07 79.18c-0.28-0.32-0.55-0.65-0.83-0.97h7.33c2.14 4.47 4.88 8.74 8.38 12.6-5.37-2.88-10.55-6.73-14.88-11.63zm67.06 12.18c3-3.65 6.72-8.09 8.78-13.15h6.52c-4.04 5.09-10.33 10.34-15.3 13.15zm20.47-21.15h-8.67c2.24-7.35 3.16-14.78 3.41-21.35l11.51 0.03c-0.68 9.13-3.63 16.39-6.25 21.32z" fill="#fff"/><polygon points="93.65 39.75 67.8 39.67 67.81 37.17 92.74 37.29" enable-background="new 0 0 128 128" fill="#383838"/><polygon points="60.81 39.65 34.23 39.59 35.18 37.12 60.81 37.15" enable-background="new 0 0 128 128" fill="#383838"/><polygon points="60.81 68.96 30.83 68.91 30.64 66.4 60.81 66.46" enable-background="new 0 0 128 128" fill="#383838"/><polygon points="97.39 69.03 67.81 68.97 67.81 66.47 97.51 66.58" enable-background="new 0 0 128 128" fill="#383838"/><polygon points="117.1 69.08 105.6 69.09 105.7 66.57 117.3 66.6" enable-background="new 0 0 128 128" fill="#383838"/><polygon points="111.3 39.72 102.3 39.77 101.5 37.35 110.1 37.41" enable-background="new 0 0 128 128" fill="#383838"/><polygon points="60.81 98.41 39.37 98.4 37.97 96.06 60.85 95.92" enable-background="new 0 0 128 128" fill="#383838"/><polygon points="89.37 98.34 67.79 98.41 67.81 95.91 90.66 95.98" enable-background="new 0 0 128 128" fill="#383838"/><polygon points="30.52 98.36 23.73 98.48 21.72 96.2 29.53 96.19" enable-background="new 0 0 128 128" fill="#383838"/><polygon points="22.89 68.86 10.89 68.85 10.71 66.34 22.75 66.4" enable-background="new 0 0 128 128" fill="#383838"/><polygon points="25.62 39.55 17.18 39.51 18.56 37.08 26.45 37.06" enable-background="new 0 0 128 128" fill="#383838"/><polygon points="104.7 98.46 98.71 98.41 99.77 96.05 106.7 96.09" enable-background="new 0 0 128 128" fill="#383838"/><path d="m38.84 30.31 0.01-0.09c0.2-0.29 3.45-7.47 9.64-12.71 6.29-5.33 12.12-6.93 12.37-7l-0.05 2.65c-0.06 0.02-5.2 1.31-11.16 6.11-7.02 5.65-10.76 10.98-10.81 11.04z" enable-background="new 0 0 128 128" fill="#383838"/><path d="m89.23 30.51c-0.03-0.05-2.51-4.47-9.45-10.16-5.51-4.51-11.86-7.34-11.93-7.37l0.03-2.6c0.3 0.12 6.88 2.97 12.52 8.03 6.36 5.7 8.66 11.69 8.78 11.91l0.05 0.19z" enable-background="new 0 0 128 128" fill="#383838"/><path d="m105.3 30.52c-0.03-0.04-3.38-3.13-7.04-6.05-3.46-2.77-5.91-3.93-5.95-3.96l-2.54-3.11c0.2 0.1 5.83 2.92 9.4 6.02 3.53 3.07 5.94 6.8 6.06 6.95l0.07 0.15z" enable-background="new 0 0 128 128" fill="#383838"/><path d="m23.74 30.3 0.03-0.1c0.11-0.13 2.1-3.23 5.56-6.46 4.21-3.92 8.89-5.73 9.05-5.82l-2.24 2.6c-0.04 0.02-1.8 0.64-6.19 4.17-3.5 2.82-6.18 5.58-6.21 5.61z" enable-background="new 0 0 128 128" fill="#383838"/><path d="m64.11 124.6c-41.05 0-54.65-34.41-54.79-34.75l0.12 0.24c0.14 0.33 15.32 32.01 54.67 32.01h0.13c21.16-0.04 34.42-8.85 41.83-16.24 8.05-8.03 12.3-15.49 12.33-15.57l0.05-0.1c-0.13 0.34-11.93 34.33-54.2 34.41h-0.14z" enable-background="new 0 0 128 128" fill="#383838"/><path transform="matrix(1.718 0 0 -1.718 113.2 124.6)" d="m-18.27-0.9121c-0.7076-3.555e-4 -1.424 0.2735-1.963 0.8125l-4.242 4.244c-1.079 1.079-1.068 2.852 0 3.92 1.858 1.858 6.492 6.494 7.434 7.436l-7.434 7.434c-1.086 1.086-1.062 2.859 0 3.922l4.242 4.244c1.079 1.08 2.853 1.069 3.922 0l7.436-7.436 7.434 7.436c1.074 1.074 2.843 1.078 3.922 0l4.242-4.244c1.076-1.076 1.073-2.848 0-3.922l-7.434-7.434c0.844-0.8441 4.956-4.957 7.434-7.436 1.107-1.107 1.038-2.882 0-3.92l-4.242-4.244c-1.098-1.098-2.872-1.05-3.922 0l-7.434 7.434-7.436-7.434c-0.5361-0.5361-1.251-0.8121-1.959-0.8125z" clip-path="url(#b)" fill="#db0000" fill-rule="evenodd" filter="url(#a)" stroke="#fff" stroke-width="2.117" style="paint-order:normal"/></svg>
