<svg width="32" height="32" version="1.1" viewBox="0 0 32 32" xmlns="http://www.w3.org/2000/svg"><path d="m14 4a5.401 5.401 0 0 0-3.518 1.303l-3.482 2.988v15.42l3.482 2.984a5.407 5.407 0 0 0 3.518 1.301 2 2 0 0 0 2-2v-20a2 2 0 0 0-2-2zm-10 6.006a1.995 1.995 0 0 0-2 1.994v8a2 2 0 0 0 2 2h1v-11.99l-1-0.001953z" fill="#fff" stroke-width="2"/><g transform="matrix(0 .6548 -.6548 0 34.58 2.249)"><path d="m14.17 23.03c4.502-4.502 9.104-4.539 13.64-0.0021l-2.292 2.292c-3.336-3.336-5.744-3.299-9.051 0.0079z" fill="#fff" stroke-width=".2979"/></g></svg>
