<svg width="32" height="32" version="1.1" viewBox="0 0 32 32" xmlns="http://www.w3.org/2000/svg"><g transform="translate(0 -.5)"><path d="m16 1.468a2.903 2.903 0 0 0-2.903 2.903v16.26a5.806 5.806 0 0 0-2.903 5.028 5.806 5.806 0 0 0 5.806 5.806 5.806 5.806 0 0 0 5.806-5.806 5.806 5.806 0 0 0-2.903-5.028v-16.26a2.903 2.903 0 0 0-2.903-2.903z" fill="none" stroke="#fff" stroke-width="2"/><path d="m15 16.5v5.479c-1.658 0.4521-2.807 1.958-2.807 3.676 1.34e-4 2.104 1.706 3.809 3.811 3.809 2.103-2.24e-4 3.808-1.705 3.809-3.809-1.81e-4 -1.72-1.153-3.226-2.812-3.676v-5.479z" fill="#fff"/></g></svg>
