<svg width="32" height="32" version="1.1" viewBox="0 0 100 100" xmlns="http://www.w3.org/2000/svg"><path d="m49.96 85.7-8.284-8.284c3.517-5.871 13.55-5.871 16.18 0.3906z" fill="#fff" stroke-width=".931"/><path d="m28.65 64.39c14.07-14.07 28.45-14.18 42.63-0.0066l-7.162 7.162c-10.42-10.42-17.95-10.31-28.28 0.02466z" fill="#fff" stroke-width=".931"/><path d="m14.32 50.06c21.19-21.19 49.95-21.41 71.31-0.0427l-7.181 7.181c-17.73-17.73-39.19-17.75-56.97 0.02467z" fill="#fff" stroke-width=".931"/><path d="m0 35.74c28.51-28.51 71.45-28.63 100-0.07877l-7.181 7.181c-24.78-24.78-60.7-24.9-85.66 0.06073z" fill="#595959" stroke-width=".931"/></svg>
