<?xml version="1.0" encoding="UTF-8" standalone="no"?>
<!-- Generator: Adobe Illustrator 25.2.3, SVG Export Plug-In . SVG Version: 6.00 Build 0)  -->

<svg
   version="1.1"
   id="Layer_4"
   x="0px"
   y="0px"
   viewBox="0 0 32 32"
   xml:space="preserve"
   sodipodi:docname="ethernet-connection.svg"
   width="32"
   height="32"
   inkscape:version="1.4.2 (ebf0e940d0, 2025-05-08)"
   xmlns:inkscape="http://www.inkscape.org/namespaces/inkscape"
   xmlns:sodipodi="http://sodipodi.sourceforge.net/DTD/sodipodi-0.dtd"
   xmlns="http://www.w3.org/2000/svg"
   xmlns:svg="http://www.w3.org/2000/svg"><defs
   id="defs39"><rect
     x="0.91705831"
     y="0.91705831"
     width="27.631366"
     height="25.757377"
     id="rect41" /><rect
     x="4.2407562"
     y="5.6254791"
     width="23.520888"
     height="15.227061"
     id="rect40" /></defs><sodipodi:namedview
   id="namedview39"
   pagecolor="#333333"
   bordercolor="#000000"
   borderopacity="0.25"
   inkscape:showpageshadow="2"
   inkscape:pageopacity="0.0"
   inkscape:pagecheckerboard="0"
   inkscape:deskcolor="#d1d1d1"
   inkscape:zoom="22.627417"
   inkscape:cx="19.202369"
   inkscape:cy="30.427689"
   inkscape:window-width="1251"
   inkscape:window-height="1356"
   inkscape:window-x="0"
   inkscape:window-y="0"
   inkscape:window-maximized="1"
   inkscape:current-layer="layer1"
   showguides="true"
   showgrid="false"><sodipodi:guide
     position="22.187555,3.8499996"
     orientation="0,-1"
     id="guide43"
     inkscape:locked="false" /><sodipodi:guide
     position="16.0012,18.76102"
     orientation="0,1"
     id="guide44"
     inkscape:locked="false"
     inkscape:label=""
     inkscape:color="rgb(0,134,229)" /></sodipodi:namedview>
<g
   id="g39"
   transform="matrix(0.24123988,0,0,0.24123988,0.56184806,3.362649)">
	
	
	
	
	
	
	
	
	
	<g
   id="g38"
   style="stroke:none">
		
		<path
   style="fill:#ffffff;fill-opacity:1;stroke:none"
   d="M 113.46,77.89 H 14.54 c -1.9,0 -3.44,-1.54 -3.44,-3.44 v -67 c 0,-1.9 1.54,-3.44 3.44,-3.44 h 98.91 c 1.9,0 3.44,1.54 3.44,3.44 v 67 c 0.01,1.89 -1.53,3.44 -3.43,3.44 z"
   id="path37" />
		<radialGradient
   id="SVGID_1_"
   cx="46.465401"
   cy="-5.1763"
   r="60.973099"
   gradientUnits="userSpaceOnUse">
			<stop
   offset="0"
   style="stop-color:#2F7889"
   id="stop37" />
			<stop
   offset="1"
   style="stop-color:#424242"
   id="stop38" />
		</radialGradient>
		<rect
   x="15.25"
   y="9.3800001"
   style="fill:#000000;fill-opacity:1;stroke:none"
   width="97.5"
   height="63.119999"
   id="rect38" />
	</g>
	
		
<rect
   style="fill:#ffffff;fill-opacity:1;stroke:none;stroke-width:1.92663"
   id="rect39"
   width="16.581007"
   height="16.581007"
   x="55.704521"
   y="77.878296" /><rect
   style="fill:#ffffff;fill-opacity:1;stroke:none;stroke-width:2.63815"
   id="rect39-6"
   width="62.178776"
   height="8.2905035"
   x="32.905636"
   y="94.459305"
   ry="3.3391192" /></g>
<g
   inkscape:groupmode="layer"
   id="layer1"
   inkscape:label="ethernet"
   transform="matrix(1.8044161,0,0,1.8044161,-0.96262042,-0.91987662)"
   style="display:none"><rect
     style="fill:#4d4d4d;fill-opacity:1;stroke:none;stroke-width:0.507611"
     id="rect42"
     width="1.5220432"
     height="7.0648432"
     x="2.7187133"
     y="11.179217"
     ry="0" /><rect
     style="fill:#4d4d4d;fill-opacity:1;stroke:none;stroke-width:0.575261"
     id="rect43"
     width="4.5661297"
     height="4.5661297"
     x="1.1966697"
     y="6.6130857" /><rect
     style="fill:#b4b4b4;fill-opacity:1;stroke:none;stroke-width:0.332128"
     id="rect43-5"
     width="3.0440865"
     height="2.2830648"
     x="1.9576916"
     y="4.3300209" /></g><path
   style="fill:#ffffff;fill-opacity:1;stroke-width:0.101769"
   d="M 21.02127,9.557986 C 19.496775,7.424913 17.011581,7.213234 16.011193,7.197969 15.044392,7.183719 12.988662,7.50531 11.486554,9.049142 c -1.114367,1.144899 -1.6557775,2.570679 -1.6354245,4.218315 0.01832,1.492948 0.5302155,2.723333 1.4654705,3.844825 1.381002,1.655777 3.343104,2.085241 4.714948,2.085241 0.03868,0 0.07734,0 0.116016,-0.001 1.337241,-0.03562 3.650444,-0.419288 5.031446,-2.679572 0.610614,-0.999368 0.955611,-2.163603 0.969857,-3.277971 0.0234,-1.797237 -0.696098,-3.078506 -1.127598,-3.680977 z m 0.396899,3.182309 -1.170342,-0.0031 c -0.03664,-0.838573 -0.180131,-1.556044 -0.384685,-2.167674 l 0.892512,0.0031 c 0.291057,0.523091 0.590257,1.254809 0.662515,2.167674 z m -10.824126,0.78769 1.220207,0.0031 c 0.04885,0.684905 0.160795,1.446134 0.401987,2.193118 h -0.992246 c -0.372473,-0.662527 -0.582117,-1.39221 -0.629948,-2.196182 z m 5.804888,-5.684803 c 0.360264,0.135353 1.406446,0.614683 2.173782,1.909183 l -2.178868,-0.0061 z m -0.717468,0.02951 V 9.74422 l -2.23993,-0.0061 c 0.838574,-1.320965 2.02825,-1.791136 2.23993,-1.865428 z m 0,2.685678 v 2.168692 l -3.07647,-0.0071 c 0.02036,-0.858928 0.181149,-1.574362 0.420305,-2.168692 z m -3.896725,2.158516 -1.181536,-0.0031 c 0.07022,-0.785675 0.318535,-1.515356 0.711364,-2.168713 l 0.82738,0.002 c -0.212697,0.611629 -0.351102,1.330116 -0.357208,2.169708 z m 0.837556,0.816184 3.059169,0.0072 v 2.183958 H 13.05481 C 12.83499,15.126778 12.677249,14.40422 12.622293,13.53308 Z m 3.059169,3.005233 v 1.951924 c -0.413181,-0.1323 -1.490912,-0.59433 -2.254178,-1.951924 z m 0.698134,1.966171 0.01426,-1.966171 h 2.25825 c -0.697116,1.351488 -1.740246,1.83896 -2.272498,1.966171 z m 0.01426,-2.780324 v -2.18192 l 3.015409,0.0071 c -0.03562,0.865034 -0.181149,1.581486 -0.390793,2.174798 z m 0,-2.996072 v -2.167674 l 2.580857,0.0072 c 0.232033,0.59331 0.394862,1.307728 0.433536,2.167674 z M 20.208152,9.75745 19.527319,9.75535 c -0.247306,-0.497656 -0.53124,-0.900661 -0.812122,-1.224285 0.527162,0.279864 1.0472,0.673709 1.492948,1.226314 z M 13.309236,8.578968 c -0.279865,0.307341 -0.564817,0.688974 -0.813133,1.155075 l -0.588223,-0.0021 c 0.07022,-0.08036 0.142476,-0.159736 0.216767,-0.23708 0.376545,-0.384686 0.77955,-0.684903 1.184589,-0.915918 z m -1.431887,8.05805 c -0.02849,-0.03257 -0.05597,-0.06614 -0.08447,-0.09872 h 0.745965 c 0.217785,0.454912 0.496632,0.889463 0.852823,1.282291 -0.546498,-0.29309 -1.073661,-0.6849 -1.51432,-1.183567 z m 6.824613,1.239544 c 0.305306,-0.371457 0.683886,-0.823309 0.893529,-1.338258 h 0.663533 c -0.411146,0.518001 -1.051271,1.052287 -1.557062,1.338258 z m 2.083207,-2.15241 h -0.882336 c 0.227962,-0.748 0.321589,-1.504142 0.347032,-2.172764 l 1.171358,0.0031 c -0.0692,0.929148 -0.36942,1.667991 -0.636054,2.16971 z"
   id="path2" /></svg>
