<?xml version="1.0" encoding="UTF-8" standalone="no"?>
<!-- Created with Inkscape (http://www.inkscape.org/) -->

<svg
   width="32"
   height="32"
   viewBox="0 0 8.4666662 8.4666666"
   version="1.1"
   id="svg1"
   inkscape:version="1.4.2 (ebf0e940d0, 2025-05-08)"
   sodipodi:docname="headphones.svg"
   inkscape:export-filename="headphones.png"
   inkscape:export-xdpi="96"
   inkscape:export-ydpi="96"
   xmlns:inkscape="http://www.inkscape.org/namespaces/inkscape"
   xmlns:sodipodi="http://sodipodi.sourceforge.net/DTD/sodipodi-0.dtd"
   xmlns="http://www.w3.org/2000/svg"
   xmlns:svg="http://www.w3.org/2000/svg">
  <sodipodi:namedview
     id="namedview1"
     pagecolor="#4b4b4b"
     bordercolor="#000000"
     borderopacity="0.25"
     inkscape:showpageshadow="2"
     inkscape:pageopacity="0.0"
     inkscape:pagecheckerboard="0"
     inkscape:deskcolor="#d1d1d1"
     inkscape:document-units="px"
     showguides="true"
     showgrid="false"
     inkscape:zoom="16"
     inkscape:cx="21.59375"
     inkscape:cy="7.78125"
     inkscape:window-width="2516"
     inkscape:window-height="1356"
     inkscape:window-x="0"
     inkscape:window-y="0"
     inkscape:window-maximized="1"
     inkscape:current-layer="layer1">
    <inkscape:grid
       id="grid3"
       units="mm"
       originx="0"
       originy="0"
       spacingx="0.99999994"
       spacingy="0.99999999"
       empcolor="#0099e5"
       empopacity="0.30196078"
       color="#0099e5"
       opacity="0.14901961"
       empspacing="5"
       enabled="true"
       visible="false" />
    <sodipodi:guide
       position="4.2333331,4.2333333"
       orientation="0,-1"
       id="guide2"
       inkscape:locked="false" />
    <sodipodi:guide
       position="4.233333,4.2333334"
       orientation="1,0"
       id="guide3"
       inkscape:locked="false" />
    <sodipodi:guide
       position="2.6133948,2.5394734"
       orientation="0,1"
       id="guide5"
       inkscape:locked="false"
       inkscape:label=""
       inkscape:color="rgb(0,134,229)" />
  </sodipodi:namedview>
  <defs
     id="defs1">
    <inkscape:path-effect
       effect="fillet_chamfer"
       id="path-effect10"
       is_visible="true"
       lpeversion="1"
       nodesatellites_param="F,0,0,1,0,0,0,1 @ F,0,0,1,0,0.51804857,0,1 @ F,0,0,1,0,0.49745125,0,1 @ F,0,0,1,0,0,0,1 @ F,0,0,1,0,0,0,1 @ F,0,0,1,0,0.92526047,0,1 @ F,0,0,1,0,0.79695298,0,1 @ F,0,0,1,0,0,0,1 @ F,0,0,1,0,0.53425286,0,1 @ F,0,0,1,0,0.53621002,0,1 @ F,0,0,1,0,0.52185053,0,1 @ F,0,0,1,0,0.54314428,0,1"
       radius="0"
       unit="px"
       method="auto"
       mode="F"
       chamfer_steps="1"
       flexible="false"
       use_knot_distance="true"
       apply_no_radius="true"
       apply_with_radius="true"
       only_selected="false"
       hide_knots="false" />
    <inkscape:path-effect
       effect="fillet_chamfer"
       id="path-effect8"
       is_visible="true"
       lpeversion="1"
       nodesatellites_param="F,0,0,1,0,0,0,1 @ F,0,0,1,0,0.51804857,0,1 @ F,0,0,1,0,0.49745125,0,1 @ F,0,0,1,0,0,0,1 @ F,0,0,1,0,0,0,1 @ F,0,0,1,0,0.92526047,0,1 @ F,0,0,1,0,0.79695298,0,1 @ F,0,0,1,0,0,0,1 @ F,0,0,1,0,0.53425286,0,1 @ F,0,0,1,0,0.53621002,0,1 @ F,0,0,1,0,0.52185053,0,1 @ F,0,0,1,0,0.54314428,0,1"
       radius="0"
       unit="px"
       method="auto"
       mode="F"
       chamfer_steps="1"
       flexible="false"
       use_knot_distance="true"
       apply_no_radius="true"
       apply_with_radius="true"
       only_selected="false"
       hide_knots="false" />
    <inkscape:path-effect
       effect="fillet_chamfer"
       id="path-effect6"
       is_visible="true"
       lpeversion="1"
       nodesatellites_param="F,0,0,1,0,0,0,1 @ F,0,0,1,0,0.51804857,0,1 @ F,0,0,1,0,0.49745125,0,1 @ F,0,0,1,0,0,0,1 @ F,0,0,1,0,0,0,1 @ F,0,0,1,0,0.92526047,0,1 @ F,0,0,1,0,0.79695298,0,1 @ F,0,0,1,0,0,0,1 @ F,0,0,1,0,0.53425286,0,1 @ F,0,0,1,0,0.53621002,0,1 @ F,0,0,1,0,0.52185053,0,1 @ F,0,0,1,0,0.54314428,0,1"
       radius="0"
       unit="px"
       method="auto"
       mode="F"
       chamfer_steps="1"
       flexible="false"
       use_knot_distance="true"
       apply_no_radius="true"
       apply_with_radius="true"
       only_selected="false"
       hide_knots="false" />
  </defs>
  <path
     id="path8"
     style="display:none;fill:#ffffff;fill-opacity:1;stroke:none;stroke-width:0.1;stroke-dasharray:none;stroke-opacity:1"
     d="M 6.2294635,7.3631321 V 3.2855383 A 1.2506796,1.2506796 0 0 0 5.8631478,2.4011741 1.1883271,1.1883271 0 0 0 5.0213486,2.0568263 H 4.2333333 V 1.1035345 h 0.674124 a 2.2337762,2.2337762 0 0 1 1.5795184,0.654258 h 10e-8 a 1.9240149,1.9240149 0 0 1 0.5635308,1.3604839 l 10e-8,1.4125275 H 7.1802518 A 1.2898006,1.2898006 0 0 1 8.0922785,4.9085777 1.2863905,1.2863905 0 0 1 8.4666683,5.8191775 V 6.0891178 A 1.2598588,1.2598588 0 0 1 8.0976643,6.9799724 1.3097276,1.3097276 0 0 1 7.1713604,7.3631321 Z m -3.9922604,0 V 3.2855383 A 1.2506796,1.2506796 0 0 1 2.6035188,2.4011741 1.1883271,1.1883271 0 0 1 3.4453179,2.0568263 H 4.2333333 V 1.1035345 h -0.674124 a 2.2337762,2.2337762 0 0 0 -1.5795184,0.654258 h -1e-7 A 1.9240149,1.9240149 0 0 0 1.41616,3.1182764 l -1e-7,1.4125275 H 1.2864148 A 1.2898006,1.2898006 0 0 0 0.37438813,4.9085777 1.2863905,1.2863905 0 0 0 -1.6666404e-6,5.8191775 V 6.0891178 A 1.2598588,1.2598588 0 0 0 0.36900233,6.9799724 1.3097276,1.3097276 0 0 0 1.2953062,7.3631321 Z" />
  <g
     inkscape:label="Layer 1"
     inkscape:groupmode="layer"
     id="layer1"
     style="display:inline">
    <path
       id="circle1"
       style="baseline-shift:baseline;display:inline;overflow:visible;opacity:1;vector-effect:none;fill:#ffffff;enable-background:accumulate;stop-color:#000000;stop-opacity:1"
       d="M 4.2322998,0 C 1.8974612,0 0,1.8974612 0,4.2322998 0,5.3999339 0.47476885,6.4586262 1.2412679,7.2253988 L 1.6169556,6.8497111 C 0.94812091,6.1806038 0.53536784,5.2554378 0.53536784,4.2322998 c 0,-2.0458447 1.65108726,-3.69693196 3.69693196,-3.69693196 2.0458447,0 3.6995158,1.65108726 3.6995158,3.69693196 0,1.0229224 -0.4135471,1.9478204 -1.0826213,2.6168945 L 7.2253988,7.2253988 C 7.9921377,6.4586598 8.4666667,5.3997191 8.4666667,4.2322998 8.4666667,1.8974612 6.5671383,0 4.2322998,0 Z" />
    <circle
       style="display:none;fill:none;fill-opacity:1;stroke:#ffffff;stroke-width:0.534738;stroke-dasharray:none;stroke-opacity:1"
       id="path1"
       cx="4.2333331"
       cy="4.2333331"
       r="3.9659643" />
    <path
       id="path3"
       style="baseline-shift:baseline;display:inline;overflow:visible;opacity:1;vector-effect:none;fill:#ffffff;enable-background:accumulate;stop-color:#000000;stop-opacity:1"
       d="m 4.2322998,0 c -1.1656382,0 -2.2234,0.47546484 -2.9899984,1.2423014 l 1.0066569,1.0082444 c 0.5734519,-0.573686 1.1036985,-0.9271 1.9833415,-0.9271 0.8798592,0 1.4093187,0.3536938 1.9832917,0.9276291 L 7.2238485,1.2428182 C 6.456728,0.47573336 5.3981524,0 4.2322998,0 Z"
       sodipodi:nodetypes="sccsccs" />
    <rect
       style="fill:#ffffff;fill-opacity:1;stroke:none;stroke-width:1.07474;stroke-dasharray:none;stroke-opacity:1"
       id="rect5"
       width="2.3812499"
       height="2.9104166"
       x="-4.8421512"
       y="4.6850543"
       ry="0.79375106"
       transform="rotate(-45)" />
    <rect
       style="fill:#ffffff;fill-opacity:1;stroke:none;stroke-width:1.07474;stroke-dasharray:none;stroke-opacity:1"
       id="rect6"
       width="2.3812499"
       height="2.9104166"
       x="-10.828969"
       y="-1.3017637"
       ry="0.79375106"
       transform="matrix(-0.70710678,-0.70710678,-0.70710678,0.70710678,0,0)" />
  </g>
</svg>
