<?xml version="1.0" encoding="UTF-8" standalone="no"?>
<!-- Created with Inkscape (http://www.inkscape.org/) -->

<svg
   width="32"
   height="32"
   viewBox="0 0 32 32"
   version="1.1"
   id="svg1"
   inkscape:version="1.4.2 (ebf0e940d0, 2025-05-08)"
   sodipodi:docname="temperature-high.svg"
   xmlns:inkscape="http://www.inkscape.org/namespaces/inkscape"
   xmlns:sodipodi="http://sodipodi.sourceforge.net/DTD/sodipodi-0.dtd"
   xmlns="http://www.w3.org/2000/svg"
   xmlns:svg="http://www.w3.org/2000/svg">
  <sodipodi:namedview
     id="namedview1"
     pagecolor="#333333"
     bordercolor="#000000"
     borderopacity="0.25"
     inkscape:showpageshadow="2"
     inkscape:pageopacity="0.0"
     inkscape:pagecheckerboard="0"
     inkscape:deskcolor="#d1d1d1"
     inkscape:document-units="px"
     showguides="true"
     inkscape:zoom="22.627417"
     inkscape:cx="17.434602"
     inkscape:cy="10.672893"
     inkscape:window-width="2516"
     inkscape:window-height="1356"
     inkscape:window-x="0"
     inkscape:window-y="0"
     inkscape:window-maximized="1"
     inkscape:current-layer="layer1">
    <sodipodi:guide
       position="16,16"
       orientation="1,0"
       id="guide1"
       inkscape:locked="false" />
    <sodipodi:guide
       position="18.903249,28.129065"
       orientation="0,-1"
       id="guide2"
       inkscape:locked="false" />
    <sodipodi:guide
       position="20.395508,16"
       orientation="0,1"
       id="guide6"
       inkscape:locked="false"
       inkscape:label=""
       inkscape:color="rgb(0,134,229)" />
    <sodipodi:guide
       position="26.502686,22"
       orientation="0,1"
       id="guide7"
       inkscape:locked="false"
       inkscape:label=""
       inkscape:color="rgb(0,134,229)" />
  </sodipodi:namedview>
  <defs
     id="defs1" />
  <g
     inkscape:label="Layer 1"
     inkscape:groupmode="layer"
     id="layer1"
     transform="translate(0,-0.5)">
    <path
       id="rect1"
       style="fill:none;fill-opacity:1;stroke:#ffffff;stroke-width:1.99976;stroke-dasharray:none;stroke-opacity:1"
       d="M 16,1.4676864 A 2.9032486,2.9032486 0 0 0 13.096751,4.3709352 V 20.633666 A 5.8064973,5.8064973 0 0 0 10.193504,25.661427 5.8064973,5.8064973 0 0 0 16,31.467923 5.8064973,5.8064973 0 0 0 21.806499,25.661427 5.8064973,5.8064973 0 0 0 18.903249,20.633666 V 4.3709352 A 2.9032486,2.9032486 0 0 0 16,1.4676864 Z" />
    <path
       id="rect2"
       style="fill:#ff8080;fill-opacity:1;stroke:none;stroke-width:2;stroke-dasharray:none;stroke-opacity:1"
       d="m 15,10.5 0,11.478516 c -1.657504,0.452097 -2.807179,1.957795 -2.806641,3.675781 1.34e-4,2.104072 1.706385,3.809449 3.810547,3.808594 2.103399,-2.24e-4 3.80846,-1.705285 3.808594,-3.808594 C 19.812319,23.934647 18.659829,22.428406 17,21.978516 L 17,10.5 Z"
       sodipodi:nodetypes="cccccccc" />
  </g>
</svg>
